<svg width="387" height="271" viewBox="0 0 387 271" fill="none" xmlns="http://www.w3.org/2000/svg">
<path d="M19.5018 225.006C13.3467 226.663 0.823289 232.747 4.23229 242.406L32.2856 238.855" stroke="#3B1569" stroke-width="2.84083" stroke-linecap="round" stroke-linejoin="round"/>
<path d="M35.4814 199.438C36.0733 202.871 38.1092 210.447 41.5182 213.288" stroke="#3B1569" stroke-width="2.84083" stroke-linecap="round" stroke-linejoin="round"/>
<path d="M42.2287 213.643C41.045 210.21 40.3111 201.498 45.4246 201.214C50.5381 200.93 46.0164 209.855 43.6491 213.643" stroke="#3B1569" stroke-width="2.84083" stroke-linecap="round" stroke-linejoin="round"/>
<path d="M61.4038 194.822L41.873 215.773" stroke="#3B1569" stroke-width="2.84083" stroke-linecap="round" stroke-linejoin="round"/>
<path d="M68.1507 212.576L41.873 215.772L14.1749 198.727C8.37486 197.662 -1.87582 197.236 3.52177 204.054C8.91935 210.872 26.1301 231.515 34.0608 240.985L46.4895 240.275C50.0405 239.801 55.012 240.488 46.4895 247.022L41.873 250.573L49.6854 261.581L75.9631 251.993" stroke="#3B1569" stroke-width="2.84083" stroke-linecap="round" stroke-linejoin="round"/>
<path d="M57.1426 187.365L67.7957 202.635L79.5141 268.684" stroke="#3B1569" stroke-width="2.84083" stroke-linecap="round" stroke-linejoin="round"/>
<path d="M263.458 196.242C258.131 197.663 242.01 202.847 231.499 203.699C220.987 204.552 206.286 205.001 200.249 205.12C188.768 206.185 164.029 209.097 156.927 212.222C149.825 215.347 132.661 216.601 124.967 216.838C109.816 218.85 78.2356 224.224 73.1221 229.622" stroke="#3B1569" stroke-width="2.84083" stroke-linecap="round" stroke-linejoin="round"/>
<path d="M267.72 214.352C258.368 217.311 235.405 224.579 222.621 222.874C209.838 221.17 185.335 225.005 174.682 227.135C167.225 229.621 150.322 234.521 142.368 234.237C134.413 233.953 95.0205 241.695 76.3184 245.601" stroke="#3B1569" stroke-width="2.84083" stroke-linecap="round" stroke-linejoin="round"/>
<path d="M286.54 218.613C276.361 223.466 252.095 237.079 244.993 237.079C237.891 237.079 217.65 237.079 208.417 237.079L162.964 238.854C155.98 239.328 140.237 240.985 133.135 243.826C126.033 246.667 92.2982 254.716 77.3838 258.385" stroke="#3B1569" stroke-width="2.84083" stroke-linecap="round" stroke-linejoin="round"/>
<path d="M290.801 223.229C287.487 230.332 274.466 245.743 251.74 244.891L201.315 247.021L141.657 250.217C125.559 253.65 90.6643 261.865 79.8691 267.262" stroke="#3B1569" stroke-width="2.84083" stroke-linecap="round" stroke-linejoin="round"/>
<path d="M256.001 189.85C241.56 189.732 205.576 190.848 198.474 191.985C191.372 193.121 177.759 195.536 171.841 196.601C163.555 198.022 145.279 201.431 138.461 203.703C131.643 205.976 114.788 207.491 107.212 207.964L70.2812 217.197" stroke="#3B1569" stroke-width="2.84083" stroke-linecap="round" stroke-linejoin="round"/>
<path d="M252.45 185.944C243.572 182.866 216.229 177.634 200.605 181.327C194.686 181.445 181.145 182.109 174.327 183.813C167.509 185.517 153.257 188.784 146.984 190.205L123.547 194.466L68.5059 204.054" stroke="#3B1569" stroke-width="2.84083" stroke-linecap="round" stroke-linejoin="round"/>
<path d="M213.033 180.262L187.821 171.74C181.547 170.793 165.733 170.106 152.665 174.936C139.598 179.765 116.326 192.454 105.437 197.662" stroke="#3B1569" stroke-width="2.84083" stroke-linecap="round" stroke-linejoin="round"/>
<path d="M231.499 163.217C221.674 156.825 198.048 143.473 193.502 142.621C188.957 141.769 175.984 136.584 170.066 134.099C165.568 133.625 155.79 133.673 152.665 137.65L64.5996 196.952" stroke="#3B1569" stroke-width="2.84083" stroke-linecap="round" stroke-linejoin="round"/>
<path d="M238.245 172.451C224.515 167.479 191.372 157.181 185.69 157.181C181.429 155.761 170.918 153.772 162.963 157.181L132.424 168.9L110.053 180.263L68.1504 204.055" stroke="#3B1569" stroke-width="2.84083" stroke-linecap="round" stroke-linejoin="round"/>
<path d="M227.237 151.853C216.229 140.963 187.394 119.113 178.588 118.829C168.929 117.693 158.228 121.67 154.086 123.801L112.538 149.723L58.5625 188.074" stroke="#3B1569" stroke-width="2.84083" stroke-linecap="round" stroke-linejoin="round"/>
<path d="M184.27 105.69C191.608 108.768 213.743 122.38 218.004 130.903C222.266 139.425 228.539 155.523 231.143 162.507C235.049 169.017 246.484 182.322 251.029 184.879" stroke="#3B1569" stroke-width="2.84083" stroke-linecap="round" stroke-linejoin="round"/>
<path d="M173.261 93.6172C171.841 95.5111 169.852 99.867 173.261 102.14C176.67 104.412 187.229 106.401 192.082 107.111C194.686 107.111 200.107 106.614 200.959 104.625C201.812 102.637 196.816 101.666 194.212 101.429C193.502 102.376 192.437 105.336 193.857 106.756" stroke="#3B1569" stroke-width="2.84083" stroke-linecap="round" stroke-linejoin="round"/>
<path d="M175.747 82.6084C173.024 83.9104 168.645 87.7219 172.906 92.5513C177.286 94.9187 187.11 99.6534 191.372 99.6534C194.449 100.482 201.03 101.784 202.735 100.364C204.866 98.5881 204.51 93.9717 201.315 93.2615C198.758 92.6934 196.225 93.2615 195.278 93.6166C194.331 94.9739 193.005 99.2285 195.278 100.516" stroke="#3B1569" stroke-width="2.84083" stroke-linecap="round" stroke-linejoin="round"/>
<path d="M180.719 71.2451C177.049 72.4288 171.06 76.2166 176.457 81.8982L196.698 91.8412C197.882 92.433 201.599 93.5457 206.996 93.2616C212.394 92.9775 212.56 89.1187 211.968 87.2248C211.731 86.2779 209.908 84.455 204.511 84.7391C199.113 85.0232 200.131 90.7968 201.315 93.0458" stroke="#3B1569" stroke-width="2.84083" stroke-linecap="round" stroke-linejoin="round"/>
<path d="M213.034 75.8616C210.193 73.9677 202.025 73.3018 202.025 80.1198" stroke="#3B1569" stroke-width="2.84083" stroke-linecap="round" stroke-linejoin="round"/>
<path d="M284.764 131.613C279.911 138.479 268.358 150.647 262.392 137.295C256.427 123.943 244.519 102.85 239.311 93.9725C235.168 87.699 226.243 74.7969 223.686 73.3765C221.129 71.956 219.07 48.1641 218.36 36.4456C216.111 30.764 210.405 22.4545 205.576 34.6701V58.8168C201.67 58.1066 192.224 57.1123 185.69 58.8168C179.156 60.5213 180.837 67.8128 182.494 71.2455C185.098 74.2047 192.437 80.3361 200.959 81.1884C216.016 83.461 214.098 76.9274 211.257 73.3765L192.437 65.5638" stroke="#3B1569" stroke-width="2.84083" stroke-linecap="round" stroke-linejoin="round"/>
<path d="M261.683 205.473L264.879 201.212C268.572 199.508 270.679 201.922 271.271 203.343C271.507 204.408 270.845 207.32 266.299 210.445C261.754 213.57 261.328 208.433 261.683 205.473Z" stroke="#3B1569" stroke-width="2.84083" stroke-linecap="round" stroke-linejoin="round"/>
<path d="M297.548 197.662L281.924 209.759M281.924 209.759L275.532 214.707C274.703 217.074 274.182 221.596 278.728 220.744C283.273 219.892 285.83 217.074 286.54 215.772C287.132 214.249 287.037 210.913 281.924 209.759Z" stroke="#3B1569" stroke-width="2.84083" stroke-linecap="round" stroke-linejoin="round"/>
<path d="M290.802 190.205L272.691 205.342M272.691 205.342L267.01 210.091C266.418 212.695 266.726 217.122 272.691 213.997C278.657 210.872 278.255 207.96 277.308 206.895C276.597 206.215 274.68 204.952 272.691 205.342Z" stroke="#3B1569" stroke-width="2.84083" stroke-linecap="round" stroke-linejoin="round"/>
<path d="M302.875 205.119L291.867 213.979M291.867 213.979L288.316 216.838C287.487 219.678 286.825 224.863 290.802 222.874C294.779 220.886 296.72 218.968 297.194 218.258C297.075 217.063 295.844 214.534 291.867 213.979Z" stroke="#3B1569" stroke-width="2.84083" stroke-linecap="round" stroke-linejoin="round"/>
<path d="M384.194 179.907C385.969 188.193 385.969 205.546 371.765 208.671C357.277 209.807 341.108 206.303 334.834 204.409C332.941 203.699 327.235 203.557 319.565 208.671C311.895 213.784 297.667 220.507 291.512 223.23" stroke="#3B1569" stroke-width="2.84083" stroke-linecap="round" stroke-linejoin="round"/>
<path d="M285.119 131.257C297.193 116.699 314.238 105.334 340.871 109.241C342.291 112.081 349.748 112.556 353.299 112.438C356.495 113.148 363.526 115.421 366.083 118.83C369.279 123.091 370.344 131.257 372.83 140.136C374.819 147.239 377.683 155.406 378.867 158.602L383.838 179.198L381.708 177.067C368.569 168.9 350.103 168.9 341.581 170.675C334.763 172.095 316.487 172.924 308.201 173.161C290.02 175.149 273.874 191.745 268.074 199.794L251.029 184.879L290.801 141.201L285.119 131.257Z" fill="#B476FF" stroke="#3B1569" stroke-width="2.84083" stroke-linecap="round" stroke-linejoin="round"/>
<path d="M346.197 72.666C346.197 74.5599 347.263 78.3477 351.524 78.3477" stroke="#3B1569" stroke-width="2.84083" stroke-linecap="round" stroke-linejoin="round"/>
<path d="M339.806 89.3554C341.226 89.4737 344.351 89.4264 345.487 88.29" stroke="#3B1569" stroke-width="2.84083" stroke-linecap="round" stroke-linejoin="round"/>
<path d="M365.728 118.829C366.557 114.212 368.995 104.127 372.12 100.718C376.026 96.4571 386.679 75.506 375.316 65.208C367.646 56.9695 358.389 56.8038 354.72 57.7508C350.932 59.4081 342.86 64.7114 340.871 72.6657L331.638 73.7311C329.744 74.4413 327.235 77.2821 332.348 82.9638L334.834 85.8046C332.23 91.6046 330.147 103.631 342.647 105.335L341.581 110.662" stroke="#3B1569" stroke-width="2.84083" stroke-linecap="round" stroke-linejoin="round"/>
<path d="M345.843 55.2656C347.618 60.8289 353.655 71.5294 363.598 69.8249V81.1882C369.28 81.8984 377.66 85.5915 365.729 94.6822L369.99 103.56" stroke="#3B1569" stroke-width="2.84083" stroke-linecap="round" stroke-linejoin="round"/>
<path d="M187.821 16.2041L195.278 25.0817" stroke="#3B1569" stroke-width="2.84083" stroke-linecap="round" stroke-linejoin="round"/>
<path d="M208.417 2L210.548 13.7184" stroke="#3B1569" stroke-width="2.84083" stroke-linecap="round" stroke-linejoin="round"/>
<path d="M232.564 3.41992L227.237 14.073" stroke="#3B1569" stroke-width="2.84083" stroke-linecap="round" stroke-linejoin="round"/>
<path d="M210.548 28.2773C210.785 33.959 212.536 45.1093 217.65 44.257" stroke="#3B1569" stroke-width="2.84083" stroke-linecap="round" stroke-linejoin="round"/>
</svg>
