<svg width="76" height="76" viewBox="0 0 76 76" fill="none" xmlns="http://www.w3.org/2000/svg">
<path d="M55.9995 10H24V0H55.9995C67.0455 0 75.9995 8.9543 75.9995 20V52.0004H65.9995V20C65.9995 14.4772 61.5225 10 55.9995 10Z" fill="white"/>
<path d="M20 66.0004H51.9995V76.0004H20C8.9543 76.0004 0 67.0454 0 56.0004V24H10V56.0004C10 61.5224 14.4771 66.0004 20 66.0004Z" fill="white"/>
<path fill-rule="evenodd" clip-rule="evenodd" d="M57.9995 38C57.9995 49.0457 49.0457 58.0004 38 58.0004C26.9543 58.0004 18 49.0457 18 38C18 26.9543 26.9543 18 38 18C49.0457 18 57.9995 26.9543 57.9995 38ZM48 38C48 43.5229 43.5228 48 38 48C32.4771 48 28 43.5229 28 38C28 32.4772 32.4771 28 38 28C43.5228 28 48 32.4772 48 38Z" fill="white"/>
</svg>
