<svg width="210" height="191" viewBox="0 0 210 191" fill="none" xmlns="http://www.w3.org/2000/svg">
<path d="M49.1962 2C35.8628 6.66667 7.99616 17.1 3.19616 21.5C-1.60384 25.9 9.19616 35.3333 15.1962 39.5C17.3625 43 19.1953 52.4 9.19531 62" stroke="#5E4EC2" stroke-width="3" stroke-linecap="round"/>
<path d="M150.195 189.5C164.695 172.333 195.795 135.5 204.195 125.5C214.695 113 204.195 101 183.195 103.5C166.395 105.5 125.528 113.333 107.195 117C93.1945 123 63.0945 130 54.6945 110C52.8612 106.166 49.8945 94.6999 52.6945 79.4999C56.1945 60.4999 52 19.4999 2.5 22.4999" stroke="#5E4EC2" stroke-width="3" stroke-linecap="round"/>
</svg>
