<svg width="316" height="76" viewBox="0 0 316 76" fill="none" xmlns="http://www.w3.org/2000/svg">
<path d="M55.9995 10H24V0H55.9995C67.0455 0 75.9995 8.9543 75.9995 20V52.0004H65.9995V20C65.9995 14.4772 61.5225 10 55.9995 10Z" fill="black"/>
<path d="M20 66.0004H51.9995V76.0004H20C8.9543 76.0004 0 67.0454 0 56.0004V24H10V56.0004C10 61.5224 14.4771 66.0004 20 66.0004Z" fill="black"/>
<path fill-rule="evenodd" clip-rule="evenodd" d="M57.9995 38C57.9995 49.0457 49.0457 58.0004 38 58.0004C26.9543 58.0004 18 49.0457 18 38C18 26.9543 26.9543 18 38 18C49.0457 18 57.9995 26.9543 57.9995 38ZM48 38C48 43.5229 43.5228 48 38 48C32.4771 48 28 43.5229 28 38C28 32.4772 32.4771 28 38 28C43.5228 28 48 32.4772 48 38Z" fill="black"/>
<path d="M110.495 14.4C108.522 14.4 106.869 13.7867 105.535 12.56C104.255 11.28 103.615 9.70666 103.615 7.84C103.615 5.97333 104.255 4.42666 105.535 3.2C106.869 1.92 108.522 1.28 110.495 1.28C112.469 1.28 114.095 1.92 115.375 3.2C116.709 4.42666 117.375 5.97333 117.375 7.84C117.375 9.70666 116.709 11.28 115.375 12.56C114.095 13.7867 112.469 14.4 110.495 14.4ZM116.015 19.68V64H104.815V19.68H116.015ZM123.561 36C123.561 30.5067 124.788 25.6 127.241 21.28C129.748 16.9067 133.134 13.52 137.401 11.12C141.721 8.66667 146.548 7.44 151.881 7.44C158.121 7.44 163.588 9.04 168.281 12.24C172.974 15.44 176.254 19.8667 178.121 25.52H165.241C163.961 22.8533 162.148 20.8533 159.801 19.52C157.508 18.1867 154.841 17.52 151.801 17.52C148.548 17.52 145.641 18.2933 143.081 19.84C140.574 21.3333 138.601 23.4667 137.161 26.24C135.774 29.0133 135.081 32.2667 135.081 36C135.081 39.68 135.774 42.9333 137.161 45.76C138.601 48.5333 140.574 50.6933 143.081 52.24C145.641 53.7333 148.548 54.48 151.801 54.48C154.841 54.48 157.508 53.8133 159.801 52.48C162.148 51.0933 163.961 49.0667 165.241 46.4H178.121C176.254 52.1067 172.974 56.56 168.281 59.76C163.641 62.9067 158.174 64.48 151.881 64.48C146.548 64.48 141.721 63.28 137.401 60.88C133.134 58.4267 129.748 55.04 127.241 50.72C124.788 46.4 123.561 41.4933 123.561 36ZM184.007 41.68C184.007 37.2 184.887 33.2267 186.647 29.76C188.461 26.2933 190.887 23.6267 193.927 21.76C197.021 19.8933 200.461 18.96 204.247 18.96C207.554 18.96 210.434 19.6267 212.887 20.96C215.394 22.2933 217.394 23.9733 218.887 26V19.68H230.167V64H218.887V57.52C217.447 59.6 215.447 61.3333 212.887 62.72C210.381 64.0533 207.474 64.72 204.167 64.72C200.434 64.72 197.021 63.76 193.927 61.84C190.887 59.92 188.461 57.2267 186.647 53.76C184.887 50.24 184.007 46.2133 184.007 41.68ZM218.887 41.84C218.887 39.12 218.354 36.8 217.287 34.88C216.221 32.9067 214.781 31.4133 212.967 30.4C211.154 29.3333 209.207 28.8 207.127 28.8C205.047 28.8 203.127 29.3067 201.367 30.32C199.607 31.3333 198.167 32.8267 197.047 34.8C195.981 36.72 195.447 39.0133 195.447 41.68C195.447 44.3467 195.981 46.6933 197.047 48.72C198.167 50.6933 199.607 52.2133 201.367 53.28C203.181 54.3467 205.101 54.88 207.127 54.88C209.207 54.88 211.154 54.3733 212.967 53.36C214.781 52.2933 216.221 50.8 217.287 48.88C218.354 46.9067 218.887 44.56 218.887 41.84ZM251.506 26.56C252.946 24.2133 254.813 22.3733 257.106 21.04C259.453 19.7067 262.119 19.04 265.106 19.04V30.8H262.146C258.626 30.8 255.959 31.6267 254.146 33.28C252.386 34.9333 251.506 37.8133 251.506 41.92V64H240.306V19.68H251.506V26.56ZM313.05 40.88C313.05 42.48 312.943 43.92 312.73 45.2H280.33C280.596 48.4 281.716 50.9067 283.69 52.72C285.663 54.5333 288.09 55.44 290.97 55.44C295.13 55.44 298.09 53.6533 299.85 50.08H311.93C310.65 54.3467 308.196 57.8667 304.57 60.64C300.943 63.36 296.49 64.72 291.21 64.72C286.943 64.72 283.103 63.7867 279.69 61.92C276.33 60 273.69 57.3067 271.77 53.84C269.903 50.3733 268.97 46.3733 268.97 41.84C268.97 37.2533 269.903 33.2267 271.77 29.76C273.636 26.2933 276.25 23.6267 279.61 21.76C282.97 19.8933 286.836 18.96 291.21 18.96C295.423 18.96 299.183 19.8667 302.49 21.68C305.85 23.4933 308.436 26.08 310.25 29.44C312.116 32.7467 313.05 36.56 313.05 40.88ZM301.45 37.68C301.396 34.8 300.356 32.5067 298.33 30.8C296.303 29.04 293.823 28.16 290.89 28.16C288.116 28.16 285.77 29.0133 283.85 30.72C281.983 32.3733 280.836 34.6933 280.41 37.68H301.45Z" fill="black"/>
</svg>
