<svg width="34" height="30" viewBox="0 0 34 30" fill="none" xmlns="http://www.w3.org/2000/svg">
<path d="M31 17H15C13.9 17 13 16.1 13 15V3C13 1.9 13.9 1 15 1H31C32.1 1 33 1.9 33 3V15C33 16.1 32.1 17 31 17Z" stroke="#3B1569" stroke-width="1.5" stroke-miterlimit="10" stroke-linecap="round" stroke-linejoin="round"/>
<path d="M31 1H15C13.9 1 13 1.9 13 3L23 10L33 3C33 1.9 32.1 1 31 1Z" stroke="#3B1569" stroke-width="1.5" stroke-miterlimit="10" stroke-linecap="round"/>
<path d="M15.0649 21.3825L13.0649 23.3825C12.2849 24.1625 11.0148 24.1625 10.2348 23.3825L6.61485 19.7625C5.83485 18.9825 5.83485 17.7125 6.61485 16.9325L8.61485 14.9325L3.74485 10.0625L1.84485 11.9625C-0.24515 14.0525 1.67485 19.3825 6.14485 23.8525C10.6148 28.3225 15.9349 30.2525 18.0349 28.1525L19.9349 26.2525L15.0649 21.3825Z" stroke="#3B1569" stroke-width="1.5" stroke-miterlimit="10" stroke-linecap="round" stroke-linejoin="round"/>
<path d="M20.8544 25.7628L15.5544 20.4628C15.3644 20.2728 15.0444 20.2728 14.8544 20.4628C14.6644 20.6528 14.6644 20.9728 14.8544 21.1628L20.1544 26.4628C20.3444 26.6528 20.6644 26.6528 20.8544 26.4628C21.0544 26.2728 21.0544 25.9528 20.8544 25.7628Z" stroke="#3B1569" stroke-width="1.5" stroke-miterlimit="10" stroke-linecap="round" stroke-linejoin="round"/>
<path d="M8.83508 15.1425L3.53508 9.8425C3.34508 9.6525 3.34508 9.3325 3.53508 9.1425C3.72508 8.9525 4.04508 8.9525 4.23508 9.1425L9.53508 14.4425C9.72508 14.6325 9.72508 14.9525 9.53508 15.1425C9.34508 15.3425 9.03508 15.3425 8.83508 15.1425Z" stroke="#3B1569" stroke-width="1.5" stroke-miterlimit="10" stroke-linecap="round" stroke-linejoin="round"/>
</svg>
