<svg width="22" height="22" viewBox="0 0 22 22" fill="none" xmlns="http://www.w3.org/2000/svg">
<path d="M15.0649 13.3825L13.0649 15.3825C12.2849 16.1625 11.0148 16.1625 10.2348 15.3825L6.61485 11.7625C5.83485 10.9825 5.83485 9.7125 6.61485 8.9325L8.61485 6.9325L3.74485 2.0625L1.84485 3.9625C-0.24515 6.0525 1.67485 11.3825 6.14485 15.8525C10.6148 20.3225 15.9349 22.2525 18.0349 20.1525L19.9349 18.2525L15.0649 13.3825Z" stroke="#3B1569" stroke-width="1.5" stroke-miterlimit="10" stroke-linecap="round" stroke-linejoin="round"/>
<path d="M20.8544 17.7628L15.5544 12.4628C15.3644 12.2728 15.0444 12.2728 14.8544 12.4628C14.6644 12.6528 14.6644 12.9728 14.8544 13.1628L20.1544 18.4628C20.3444 18.6528 20.6644 18.6528 20.8544 18.4628C21.0544 18.2728 21.0544 17.9528 20.8544 17.7628Z" stroke="#3B1569" stroke-width="1.5" stroke-miterlimit="10" stroke-linecap="round" stroke-linejoin="round"/>
<path d="M8.83508 7.1425L3.53508 1.8425C3.34508 1.6525 3.34508 1.3325 3.53508 1.1425C3.72508 0.9525 4.04508 0.9525 4.23508 1.1425L9.53508 6.4425C9.72508 6.6325 9.72508 6.9525 9.53508 7.1425C9.34508 7.3425 9.03508 7.3425 8.83508 7.1425Z" stroke="#3B1569" stroke-width="1.5" stroke-miterlimit="10" stroke-linecap="round" stroke-linejoin="round"/>
</svg>
