<svg width="556" height="260" viewBox="0 0 556 260" fill="none" xmlns="http://www.w3.org/2000/svg">
<g clip-path="url(#clip0_1634_2349)">
<path d="M89.7121 246.586C106.995 240.605 96.6974 191.563 88.689 173.808C76.6209 185.106 55.0308 180.233 53.3701 175.691C52.8709 178.37 51.2724 190.369 44.2697 200.984C37.2671 211.6 28.1824 217.121 26.577 221.729C22.666 232.943 31.2331 238.736 35.5166 240.045C50.5647 243.483 63.2662 226.526 67.736 217.618C74.1426 243.932 85.0563 247.894 89.7121 246.586Z" fill="#4D4D4D"/>
<path d="M93.0566 243.785C92.9284 245.741 93.811 252.304 98.9037 248.707C100.16 247.445 103.128 245.375 104.939 247.192C106.75 249.01 103.177 252.367 101.167 253.819C99.0922 255.46 93.9998 258.249 90.2273 256.28C86.4551 254.311 86.5155 249.149 87.021 246.814" stroke="#4D4D4D" stroke-width="1.3721" stroke-linecap="round"/>
<path d="M31.342 237.22C30.0287 237.842 27.4016 239.571 27.4016 241.512C28.9027 243.627 31.3045 248.826 28.9027 252.707C26.5009 256.588 22.1476 247.731 20.2712 242.818C19.333 240.019 19.2204 233.824 26.2757 231.436" stroke="#4D4D4D" stroke-width="1.3721" stroke-linecap="round"/>
<path d="M87.3235 255.036C86.5222 256.563 83.3729 258.81 77.1699 255.586" stroke="#4D4D4D" stroke-width="1.3721" stroke-linecap="round"/>
<path d="M83.2073 252.292C81.4203 253.984 76.6391 256.769 70.584 254.388" stroke="#4D4D4D" stroke-width="1.3721" stroke-linecap="round"/>
<path d="M74.7005 251.194C72.439 253.763 66.1447 257.909 59.0586 253.946" stroke="#4D4D4D" stroke-width="1.3721" stroke-linecap="round"/>
<path d="M64.8211 249.822C64.2602 252.142 56.6691 257.092 30.793 258.329" stroke="#4D4D4D" stroke-width="1.3721" stroke-linecap="round"/>
<path d="M66.5757 155.971C56.3138 153.009 48.2395 143.661 45.4851 139.357C42.4086 134.73 44.8776 124.384 79.3651 120.021" stroke="#4D4D4D" stroke-width="1.3721" stroke-linecap="round"/>
<path d="M66.7422 155.971C67.3552 155.117 68.9666 153.574 70.8585 153.501" stroke="#4D4D4D" stroke-width="1.3721" stroke-linecap="round"/>
<path d="M70.8576 153.501C70.7997 151.08 68.743 144.836 60.9785 139.231" stroke="#4D4D4D" stroke-width="1.3721" stroke-linecap="round"/>
<path d="M70.3105 137.859C71.116 136.609 73.7183 132.16 77.171 131.547" stroke="#4D4D4D" stroke-width="1.3721" stroke-linecap="round"/>
<path d="M77.7625 157.068C79.5427 156.986 83.2605 156.741 83.8909 156.413C84.6787 156.004 84.8538 156.004 84.8538 155.186C84.8538 154.367 77.7625 155.759 77.7625 153.14C78.4047 152.54 79.4436 151.192 78.4631 150.603C77.4826 150.014 75.4281 151.722 74.5236 152.649C73.5897 153.576 71.4945 155.038 70.584 153.467" stroke="#4D4D4D" stroke-width="1.3721" stroke-linecap="round"/>
<path d="M66.7422 155.97C67.5218 158.233 70.328 162.293 75.3173 160.438C80.3065 158.582 80.5142 157.602 79.9945 157.345" stroke="#4D4D4D" stroke-width="1.3721" stroke-linecap="round"/>
<path d="M101.32 153.501C102.499 153.186 105.074 151.725 105.95 148.391C106.825 145.058 105.641 145.041 104.94 145.45" stroke="#4D4D4D" stroke-width="1.3721" stroke-linecap="round"/>
<path d="M96.6543 151.305C97.0421 149.356 98.4081 145.595 100.771 146.146" stroke="#4D4D4D" stroke-width="1.3721" stroke-linecap="round"/>
<path d="M97.6431 148.111C96.0721 146.8 95.11 149.808 94.8251 151.477C93.0493 152.029 92.3773 154.641 92.2637 155.878C96.3737 156.306 99.2943 155.185 101.144 153.853C102.276 153.038 103.008 152.143 103.364 151.477C104.247 149.09 105.533 144.108 103.62 143.279C101.708 142.451 101.172 144.315 101.144 145.35C101.349 147.697 100.148 150.298 99.5218 151.304" stroke="#4D4D4D" stroke-width="1.3721" stroke-linecap="round"/>
<path d="M56.9769 158.166C53.4682 162.933 48.8952 175.916 56.9769 178.67C68.4537 182.076 92.1823 182.745 95.2821 158.166" stroke="#4D4D4D" stroke-width="1.3721" stroke-linecap="round"/>
<path d="M93.9102 122.217C95.3849 121.316 106.479 122.185 108.636 108.339C112.329 108.382 114.337 105.381 111.519 104.096C108.516 102.56 108.741 99.7384 109.285 98.0759C110.15 95.8959 110.203 93.6073 110.016 93.1284" stroke="#4D4D4D" stroke-width="1.3721" stroke-linecap="round"/>
<path d="M105.443 103.375C105.86 103.38 106.203 102.877 106.211 102.251C106.218 101.626 105.886 101.115 105.469 101.11C105.052 101.106 104.708 101.608 104.701 102.234C104.694 102.859 105.026 103.37 105.443 103.375Z" fill="#4D4D4D"/>
<path d="M103.24 98.6162C103.888 98.0375 105.564 97.1911 107.082 98.4345" stroke="#4D4D4D" stroke-width="1.3721" stroke-linecap="round"/>
<path d="M99.125 111.514C100.293 113.187 101.574 113.662 104.065 112.582" stroke="#4D4D4D" stroke-width="1.3721" stroke-linecap="round"/>
<path d="M89.9722 99.4395C89.7428 100.007 89.551 101.296 90.6163 101.909" stroke="#4D4D4D" stroke-width="1.3721" stroke-linecap="round"/>
<path d="M77.1671 93.4854C75.7448 101.336 80.1953 107.246 83.4217 111.789C86.8676 109.911 92.5152 105.445 90.3492 104.963C88.0726 104.456 85.6714 98.1911 87.8821 96.2748C90.4759 94.0262 92.8143 97.4282 93.2599 100.008L95.3491 96.3629C94.7583 93.8136 94.5267 89.3416 98.3263 91.8487C102.126 94.3556 107.699 93.6989 110.011 93.0573C114.569 89.7659 121.65 82.0884 113.512 77.7103C106.744 74.069 97.9358 78.6727 92.5591 82.8093C88.9189 81.8398 79.1067 82.7811 77.1671 93.4854Z" fill="#4D4D4D"/>
<path d="M83.4824 111.24C85.1975 113.25 86.0494 114.919 85.9434 118.375" stroke="#4D4D4D" stroke-width="1.3721" stroke-linecap="round"/>
<path d="M81.6683 122.832C81.08 120.788 80.7356 116.89 84.0618 117.648C88.2195 118.595 96.6942 122.691 96.0735 124.961" stroke="#4D4D4D" stroke-width="1.3721" stroke-linecap="round"/>
<path d="M90.8928 152.677L81.0137 153.226" stroke="#4D4D4D" stroke-width="1.3721" stroke-linecap="round"/>
<path d="M57.4118 154.308L3.41261 156.464C2.65609 156.495 2.01807 155.906 1.98692 155.15L1.21212 136.334C1.18093 135.576 1.76995 134.937 2.52745 134.907L44.7624 133.193" stroke="#4D4D4D" stroke-width="1.3721" stroke-linecap="round"/>
<path d="M107.171 151.58L143.898 150.41C144.638 150.387 145.226 149.78 145.226 149.039V131.611C145.226 130.829 144.573 130.205 143.792 130.24L74.4258 133.375" stroke="#4D4D4D" stroke-width="1.3721" stroke-linecap="round"/>
<path d="M47.8076 149.384C48.2623 149.384 48.6309 149.016 48.6309 148.561C48.6309 148.106 48.2623 147.738 47.8076 147.738C47.353 147.738 46.9844 148.106 46.9844 148.561C46.9844 149.016 47.353 149.384 47.8076 149.384Z" fill="#4D4D4D"/>
<path d="M126.566 224.85V221.008" stroke="#4D4D4D" stroke-width="1.3721" stroke-linecap="round"/>
<path d="M131.506 223.204L129.311 224.85" stroke="#4D4D4D" stroke-width="1.3721" stroke-linecap="round"/>
<path d="M123.822 225.399L122.176 222.38" stroke="#4D4D4D" stroke-width="1.3721" stroke-linecap="round"/>
<path d="M186.938 185.333C171.177 185.333 158.398 172.555 158.398 156.794C158.398 141.031 171.177 128.254 186.938 128.254C202.699 128.254 215.478 141.031 215.478 156.794C215.478 172.555 202.699 185.333 186.938 185.333Z" stroke="#4D4D4D" stroke-width="2.7442"/>
<path d="M161.967 131.568C166.935 126.579 173.265 123.181 180.156 121.805C187.048 120.428 194.191 121.135 200.682 123.835C207.174 126.535 212.722 131.107 216.627 136.974C220.53 142.841 222.614 149.738 222.614 156.794" stroke="#4D4D4D" stroke-width="4.1163" stroke-linecap="round"/>
<path d="M186.939 166.124C181.634 166.124 177.334 161.885 177.334 156.656C177.334 151.428 181.634 147.189 186.939 147.189C192.243 147.189 196.543 151.428 196.543 156.656C196.543 161.885 192.243 166.124 186.939 166.124Z" stroke="#4D4D4D" stroke-width="2.7442"/>
<path d="M186.939 181.217C173.451 181.217 162.516 170.282 162.516 156.794C162.516 143.305 173.451 132.37 186.939 132.37C200.427 132.37 211.362 143.305 211.362 156.794C211.362 170.282 200.427 181.217 186.939 181.217Z" stroke="#4D4D4D" stroke-width="1.3721"/>
<path d="M187.075 152.128C184.575 152.128 182.547 154.156 182.547 156.656C182.547 159.157 184.575 161.184 187.075 161.184C189.575 161.184 191.603 159.157 191.603 156.656C191.603 154.156 189.575 152.128 187.075 152.128Z" fill="#4D4D4D"/>
<path d="M226.182 96.0765C224.123 95.3314 220.557 96.6231 219.234 100.036C217.304 105.017 211.064 107.124 208.619 107.124" stroke="#4D4D4D" stroke-width="2.7442" stroke-linecap="round"/>
<path d="M205.6 114.259C216.805 114.727 223.964 115.848 230.023 117.552" stroke="#4D4D4D" stroke-width="2.7442" stroke-linecap="round"/>
<path d="M210.539 99.1655L187.213 155.971" stroke="#4D4D4D" stroke-width="2.7442" stroke-linecap="round"/>
<path d="M231.67 63.4907V186.168C231.67 189.493 235.251 192.194 239.727 192.194H510.106C514.584 192.194 518.165 189.493 518.165 186.168V63.0791" stroke="#4D4D4D" stroke-width="1.3721" stroke-miterlimit="10" stroke-linecap="round"/>
<path d="M333.249 0.44475L321.688 44.1198C321.683 44.1429 321.68 44.1665 321.68 44.1901V60.2346C321.68 60.354 321.606 60.4588 321.491 60.4948C289.886 70.4216 230.385 64.6322 216.754 60.4901C216.639 60.4552 216.576 60.3534 216.576 60.2335V44.2381C216.576 44.1835 216.592 44.1303 216.623 44.085L246.152 0.221268C246.203 0.145519 246.288 0.100098 246.38 0.100098H332.986C333.164 0.100098 333.296 0.270649 333.249 0.44475Z" fill="#4D4D4D"/>
<path d="M509.184 0.255095L530.624 44.611C530.641 44.6481 530.652 44.689 530.652 44.7304V58.7308C530.652 58.7925 530.638 58.8439 530.597 58.8911C523.402 67.408 430.947 66.5496 426.427 62.4555C426.378 62.4102 426.372 62.3611 426.372 62.2936V44.6676L421.057 0.407231C421.037 0.243877 421.164 0.100098 421.328 0.100098H508.937C509.041 0.100098 509.137 0.160317 509.184 0.255095Z" fill="#4D4D4D"/>
<path d="M421.596 1.03024L426.371 43.9881V61.8076C426.371 61.9141 426.319 62.0063 426.223 62.0507C407.623 70.62 333.345 72.6431 321.748 60.2815C321.699 60.2316 321.68 60.1698 321.68 60.1012V44.023C321.68 43.9999 321.682 43.9768 321.688 43.9546L332.739 0.992181C332.772 0.870907 332.881 0.786133 333.005 0.786133H421.322C421.462 0.786133 421.58 0.891266 421.596 1.03024Z" stroke="#4D4D4D" stroke-width="1.3721" stroke-linecap="round"/>
<path d="M477 92.7163H348.572C347.435 92.7163 346.514 93.6378 346.514 94.7745V164.477C346.514 165.614 347.435 166.535 348.572 166.535H477C478.137 166.535 479.059 165.614 479.059 164.477V94.7745C479.059 93.6378 478.137 92.7163 477 92.7163Z" stroke="#4D4D4D" stroke-width="1.3721"/>
<path d="M470.965 40.5767H278.871C277.734 40.5767 276.812 41.4981 276.812 42.6348V73.6443C276.812 74.781 277.734 75.7024 278.871 75.7024H470.965C472.101 75.7024 473.023 74.781 473.023 73.6443V42.6348C473.023 41.4981 472.101 40.5767 470.965 40.5767Z" fill="white" stroke="#4D4D4D" stroke-width="1.3721" stroke-dasharray="8.23 8.23"/>
<path d="M214.381 196.913C210.644 195.167 201.548 191.788 195.059 192.234C194.138 192.271 192.749 192.657 194.551 193.905C196.354 195.153 197.256 195.799 197.481 195.966C198.419 196.746 199.34 198.394 195.509 198.751C190.721 199.196 177.2 194.351 150.441 197.915" stroke="#4D4D4D" stroke-width="1.3721" stroke-linecap="round"/>
<path d="M552.71 145.019C547.454 146.477 541.76 154.94 539.57 158.989C542.855 158.584 550.3 156.438 553.804 151.093C557.309 145.748 554.534 144.816 552.71 145.019Z" fill="#4D4D4D"/>
<path d="M550.278 131.31C545.031 131.839 541.261 144.786 539.57 150.756C543.327 147.686 550.728 141.545 552.531 139.498C555.912 135.66 555.349 130.798 550.278 131.31Z" fill="#4D4D4D"/>
<path d="M533.337 125.652C529.827 131.175 537.432 139.471 540.942 144.994C540.942 141.517 540.942 134.242 540.942 131.175C540.942 126.266 535.87 121.665 533.337 125.652Z" fill="#4D4D4D"/>
<path d="M540.118 153.226C536.172 147.743 527.744 138.238 525.593 144.087C522.901 151.398 539.58 153.226 540.118 153.226Z" fill="#4D4D4D"/>
<path d="M540.119 161.459L539.57 140.877" stroke="#4D4D4D" stroke-width="1.3721" stroke-linecap="round"/>
<path d="M534.662 176.988C535.993 173.752 537.975 165.449 538.389 161.458H543.982C544.229 166.376 546.775 173.429 548.018 176.988C551.745 185.399 548.537 190.792 546.155 192.194H537.149C531.246 190.252 532.799 181.517 534.662 176.988Z" stroke="#4D4D4D" stroke-width="1.3721"/>
<path d="M525.299 207.013V203.72" stroke="#4D4D4D" stroke-width="1.3721" stroke-linecap="round"/>
<path d="M528.867 205.641L527.221 207.013" stroke="#4D4D4D" stroke-width="1.3721" stroke-linecap="round"/>
<path d="M523.105 207.287L521.732 205.092" stroke="#4D4D4D" stroke-width="1.3721" stroke-linecap="round"/>
<path d="M435.016 224.85V221.557" stroke="#4D4D4D" stroke-width="1.3721" stroke-linecap="round"/>
<path d="M438.582 223.478L436.936 224.85" stroke="#4D4D4D" stroke-width="1.3721" stroke-linecap="round"/>
<path d="M432.819 225.124L431.447 222.929" stroke="#4D4D4D" stroke-width="1.3721" stroke-linecap="round"/>
<path d="M404.556 228.095C396.809 224.458 377.953 217.42 364.498 218.348C362.591 218.424 359.713 219.23 363.447 221.829C367.185 224.428 369.054 225.774 369.52 226.122C371.466 227.747 373.373 231.182 365.434 231.924C355.508 232.853 327.479 222.757 272.01 230.184" stroke="#4D4D4D" stroke-width="1.3721" stroke-linecap="round"/>
<path d="M259.936 119.472C259.936 104.317 272.496 92.0303 287.653 92.0303C302.809 92.0303 315.369 104.317 315.369 119.472V192.194H259.936V119.472Z" fill="#4D4D4D"/>
<path d="M7.96083 143.206C7.8354 144.96 7.71144 146.701 7.76458 148.461C7.78219 149.044 7.88233 149.641 7.88233 150.225C7.88233 150.282 7.88233 150.34 7.88233 150.397C7.88233 150.599 7.91719 150.768 7.95211 150.964C7.97508 151.093 7.95149 151.223 7.98264 151.352C8.02663 151.534 8.11307 151.698 8.11783 151.889C8.12429 152.147 8.11783 152.406 8.11783 152.665" stroke="#4D4D4D" stroke-width="1.884" stroke-linecap="round"/>
<path d="M7.33225 140.144C7.33225 140.346 7.29826 140.588 7.33662 140.789C7.35884 140.906 7.44511 141.017 7.49143 141.125C7.55757 141.28 8.24668 141.335 8.3135 141.184C8.41811 140.949 8.72104 140.692 8.43998 140.458C8.22215 140.277 7.97658 140.144 7.6855 140.144" stroke="#4D4D4D" stroke-width="1.884" stroke-linecap="round"/>
<path d="M15.7715 141.518C15.1771 141.458 14.5849 141.411 13.9878 141.387C13.6341 141.372 13.2232 141.326 12.867 141.387C12.4352 141.46 12.103 141.863 11.8923 142.211C11.6857 142.552 11.4436 142.952 11.406 143.358C11.347 143.996 11.2931 144.646 11.2643 145.286C11.1854 147.033 11.1558 148.857 12.082 150.397C12.5267 151.137 13.1634 151.711 13.8657 152.209C14.3989 152.587 14.9254 152.665 15.5578 152.665C15.8147 152.665 15.9918 152.581 16.2228 152.471C16.583 152.298 16.8851 152.176 17.1758 151.888C17.425 151.641 17.7092 151.258 17.8517 150.938" stroke="#4D4D4D" stroke-width="1.884" stroke-linecap="round"/>
<path d="M22.1304 143.244C21.7312 143.584 21.4888 143.99 21.3062 144.479C21.1535 144.887 20.9507 145.32 20.8614 145.748C20.7215 146.417 20.7607 147.158 21.0489 147.78C21.2413 148.196 21.8388 148.446 22.2656 148.486C22.7789 148.536 23.1437 148.293 23.4213 147.885C23.7102 147.46 23.9744 146.985 23.9185 146.45C23.8375 145.676 23.5598 144.907 23.3537 144.16C23.2795 143.891 23.2262 143.617 23.1684 143.345C23.1247 143.139 23.0794 142.856 23.1727 143.338C23.4627 144.836 23.8377 146.299 24.3023 147.752C24.5332 148.474 24.773 149.257 25.2355 149.869C25.5207 150.246 25.8314 150.579 26.3106 150.674C26.9111 150.792 27.4563 150.701 27.8435 150.216C28.3846 149.537 28.5863 148.607 28.6394 147.758C28.651 147.573 28.6652 147.384 28.6067 147.209" stroke="#4D4D4D" stroke-width="1.884" stroke-linecap="round"/>
<path d="M31.1953 149.603C32.2452 147.913 33.3487 146.209 34.1674 144.39C34.4957 143.66 34.7269 142.884 35.0723 142.163C35.2793 141.731 35.4822 141.218 35.0287 140.855C34.6125 140.522 33.915 140.423 33.4064 140.528C32.9983 140.612 32.6398 141.012 32.3946 141.326C32.0735 141.737 31.9073 142.153 31.9454 142.678C31.9929 143.33 32.5025 143.744 33.0226 144.073C34.1836 144.808 35.5645 145.219 36.9084 145.465C37.2818 145.533 37.6548 145.555 38.0335 145.56C38.1281 145.562 38.2321 145.528 38.317 145.569C38.4745 145.646 38.115 145.858 37.9899 145.981C37.2425 146.716 36.3143 147.332 35.7003 148.19C35.4399 148.554 35.1096 149.033 35.0811 149.499C35.0463 150.067 37.1498 149.494 37.556 149.427C37.903 149.369 38.263 149.211 38.6136 149.211" stroke="#4D4D4D" stroke-width="1.884" stroke-linecap="round"/>
<path d="M42.5794 144.658C43.5811 144.648 44.4763 144.419 45.353 143.925C45.7846 143.682 45.8111 142.953 45.5842 142.547C45.3483 142.124 44.8017 141.755 44.35 141.622C43.707 141.434 42.9868 141.547 42.4354 141.923C40.6473 143.144 40.2754 145.441 40.3508 147.444C40.3783 148.173 40.38 149.046 40.8349 149.655C41.3744 150.379 42.1202 151.223 42.9588 151.594C43.5138 151.839 44.1206 151.84 44.7141 151.84C45.0892 151.84 45.4147 151.854 45.7412 151.642C46.271 151.298 46.7089 150.923 47.0539 150.39C47.1714 150.209 47.2911 150.079 47.3308 149.86C47.341 149.804 47.3968 149.729 47.4267 149.682C47.594 149.414 47.5341 149.089 47.6426 148.818" stroke="#4D4D4D" stroke-width="1.884" stroke-linecap="round"/>
<g clip-path="url(#clip1_1634_2349)">
<path d="M377.332 162.189C376.589 161.53 379.891 161.579 381.52 161.548C381.755 161.878 381.928 161.884 382.352 161.96C382.547 162.464 378.075 162.848 377.332 162.189Z" fill="#4D4D4D"/>
<path d="M402.74 112.378C402.589 112.925 402.476 114.702 403.069 116.16" stroke="#4D4D4D" stroke-width="0.450279" stroke-linecap="round"/>
<path d="M402.26 116.518C403.668 116.013 406.35 115.395 406.35 117.141V117.444C406.35 117.649 406.584 117.765 406.745 117.639C409.006 115.887 413.607 112.378 415.228 109.721" stroke="#4D4D4D" stroke-width="0.450279" stroke-linecap="round"/>
<path d="M408.5 103.012C409.883 104.101 412.031 106.452 409.943 107.409C409.821 107.465 409.754 107.6 409.788 107.73C410.199 109.25 410.134 112.39 406.948 114.517C406.901 114.549 406.865 114.596 406.847 114.65L406.221 116.61" stroke="#4D4D4D" stroke-width="0.450279" stroke-linecap="round"/>
<path d="M407.132 111.027C407.083 111.243 407.211 111.69 408.114 111.748" stroke="#4D4D4D" stroke-width="0.450279" stroke-linecap="round"/>
<path d="M409.554 105.353C409.554 105.827 409.411 106.243 409.194 106.534C408.978 106.825 408.704 106.974 408.428 106.974C408.153 106.974 407.879 106.825 407.662 106.534C407.446 106.243 407.303 105.827 407.303 105.353C407.303 104.88 407.446 104.463 407.662 104.172C407.879 103.882 408.153 103.732 408.428 103.732C408.704 103.732 408.978 103.882 409.194 104.172C409.411 104.463 409.554 104.88 409.554 105.353Z" stroke="#4D4D4D" stroke-width="0.450279" stroke-linecap="round"/>
<path d="M404.33 106.794L407.122 105.804" stroke="#4D4D4D" stroke-width="0.450279" stroke-linecap="round"/>
<path d="M406.49 104.903C406.561 104.603 406.823 103.912 407.301 103.552" stroke="#4D4D4D" stroke-width="0.450279" stroke-linecap="round"/>
<path d="M408.565 105.624C408.764 105.624 408.926 105.503 408.926 105.354C408.926 105.204 408.764 105.083 408.565 105.083C408.366 105.083 408.205 105.204 408.205 105.354C408.205 105.503 408.366 105.624 408.565 105.624Z" fill="#4D4D4D"/>
<path d="M407.339 135.162C407.173 133.392 407.04 129.485 407.836 128.021C408.632 126.557 409.397 124.464 409.935 123.616C411.745 122.572 416.056 118.565 418.83 110.892" stroke="#4D4D4D" stroke-width="0.450279" stroke-linecap="round"/>
<path d="M402.259 116.43L391.902 128.588" stroke="#4D4D4D" stroke-width="0.450279" stroke-linecap="round"/>
<path d="M391.902 128.625C392.67 128.522 394.666 128.572 396.509 129.603C398.812 130.893 401.251 133.161 407.302 135.162" stroke="#4D4D4D" stroke-width="0.450279" stroke-linecap="round"/>
<path d="M407.304 135.162L405.232 136.603" stroke="#4D4D4D" stroke-width="0.450279" stroke-linecap="round"/>
<path d="M391.904 128.588C391.763 129.023 391.624 130.037 392.803 131.29" stroke="#4D4D4D" stroke-width="0.450279" stroke-linecap="round"/>
<path d="M399.468 119.763C397.792 121.159 393.542 124.104 389.951 124.716C389.113 125.061 387.67 126.031 388.604 127.148C389.538 128.265 390.16 129.625 390.355 130.165C390.505 130.661 390.877 131.351 391.775 129.766" stroke="#4D4D4D" stroke-width="0.450279" stroke-linecap="round"/>
<path d="M388.932 127.597C388.236 128.007 386.614 128.791 385.69 128.646C384.766 128.5 384.15 128.889 383.958 129.101C383.854 129.269 383.789 129.612 384.358 129.648C384.926 129.685 385.601 129.663 385.867 129.648" stroke="#4D4D4D" stroke-width="0.450279" stroke-linecap="round"/>
<path d="M386.591 129.038C386.279 129.387 385.219 130.181 383.474 130.562C383.133 130.625 382.673 130.99 383.296 131.419C383.83 131.752 385.308 131.447 386.056 130.99" stroke="#4D4D4D" stroke-width="0.450279" stroke-linecap="round"/>
<path d="M386.048 130.929C385.476 131.217 384.445 131.984 384.903 132.749C385.05 132.9 385.669 132.912 386.972 131.748L387.941 130.929" stroke="#4D4D4D" stroke-width="0.450279" stroke-linecap="round"/>
<path d="M387.991 130.947L387.002 131.773C386.717 132.522 386.283 134.343 387.451 133.333C388.306 132.461 388.126 131.718 388.485 131.497C388.845 131.277 389.654 130.427 390.014 130.029" stroke="#4D4D4D" stroke-width="0.450279" stroke-linecap="round"/>
<path d="M388.032 129.488C387.912 129.859 387.817 130.72 388.392 131.199" stroke="#4D4D4D" stroke-width="0.450279" stroke-linecap="round"/>
<path d="M398.928 159.837C399.494 159.687 400.636 158.928 400.672 157.091C400.708 155.254 401.462 152.093 401.835 150.742L405.502 134.532" stroke="#4D4D4D" stroke-width="0.450279" stroke-linecap="round"/>
<path d="M406.852 108.415C406.951 108.415 407.032 108.355 407.032 108.28C407.032 108.206 406.951 108.145 406.852 108.145C406.752 108.145 406.672 108.206 406.672 108.28C406.672 108.355 406.752 108.415 406.852 108.415Z" fill="#4D4D4D"/>
<path d="M407.438 108.956C407.512 108.956 407.573 108.915 407.573 108.865C407.573 108.816 407.512 108.775 407.438 108.775C407.363 108.775 407.303 108.816 407.303 108.865C407.303 108.915 407.363 108.956 407.438 108.956Z" fill="#4D4D4D"/>
<path d="M406.133 109.316C406.183 109.316 406.223 109.235 406.223 109.136C406.223 109.036 406.183 108.956 406.133 108.956C406.083 108.956 406.043 109.036 406.043 109.136C406.043 109.235 406.083 109.316 406.133 109.316Z" fill="#4D4D4D"/>
<path d="M392.827 107.125C395.015 103.057 398.283 102.546 399.644 102.798C402.469 98.4716 406.371 97.0442 408.748 98.3378C410.649 99.3726 409.092 101.98 408.075 103.155L407.089 101.728C406.407 103.048 404.457 102.56 403.501 102.263C404.323 103.988 405.635 108.445 402.873 112.478C400.11 116.51 396.639 116.581 394.89 115.422C393.275 114.277 390.638 111.193 392.827 107.125Z" fill="#4D4D4D"/>
<path d="M391.723 160.377C392.021 160.845 393.015 161.727 394.604 161.516" stroke="#4D4D4D" stroke-width="0.450279" stroke-linecap="round"/>
<path d="M394.226 128.858C393.663 130.47 391.023 133.783 388.665 137.947C387.093 140.559 383.343 146.391 380.923 148.827C380.597 149.289 380.291 150.34 381.679 150.841C382.747 151.289 383.228 152.328 383.37 153.438C383.548 154.826 385.817 155.856 387.33 154.826C388.536 154.005 392.003 148.093 394.622 144.752C395.289 143.902 395.901 143.218 396.406 142.827" stroke="#4D4D4D" stroke-width="0.450279" stroke-linecap="round"/>
<path d="M394.686 144.798L391.723 160.378C393.229 159.976 397.366 159.217 399.918 159.217" stroke="#4D4D4D" stroke-width="0.450279" stroke-linecap="round"/>
<path d="M379.936 159.09C377.482 154.332 379.757 151.165 380.988 150.381C382.896 150.981 382.947 152.982 383.256 153.932L382.542 155.887C382.065 156.728 382.343 158.373 382.542 159.09C383.368 162.413 382.122 162.733 381.511 161.843L379.936 159.09Z" fill="#4D4D4D"/>
<path d="M393.026 163.454C392.199 162.799 393.835 162.545 395.494 162.449C396.072 162.966 399.912 163.143 400.099 163.262C398.333 163.836 393.751 164.027 393.026 163.454Z" fill="#4D4D4D"/>
<path d="M401.331 163.173C395.062 164.032 393.761 161.553 393.894 160.103C394.972 159.653 397.937 159.49 399.334 159.387C398.935 160.329 399.434 160.206 399.783 160.462C400.233 160.768 401.48 161.144 402.179 161.178C405.324 161.331 402.861 162.951 401.331 163.173Z" fill="#4D4D4D"/>
<path d="M416.098 101.795C416.385 101.629 416.977 101.569 417.049 102.65" stroke="#4D4D4D" stroke-width="0.450279" stroke-linecap="round"/>
<path d="M415.518 104.676C415.548 104.256 415.518 103.298 415.158 102.83C414.707 102.244 414.617 101.119 415.518 101.209C415.804 101.237 415.986 101.475 416.097 101.794C416.267 102.279 416.275 102.954 416.238 103.37" stroke="#4D4D4D" stroke-width="0.450279" stroke-linecap="round"/>
<path d="M414.953 105.847C414.916 105.442 414.762 104.505 414.438 104.001C414.033 103.37 413.988 101.749 414.843 101.929" stroke="#4D4D4D" stroke-width="0.450279" stroke-linecap="round"/>
<path d="M415.518 108.909C415.293 108.909 414.816 108.693 414.708 107.828C414.6 106.964 414.213 106.417 414.032 106.252C413.927 105.997 413.816 105.469 414.213 105.397C414.446 105.354 414.722 105.58 414.952 105.847L415.338 106.387" stroke="#4D4D4D" stroke-width="0.450279" stroke-linecap="round"/>
<path d="M417.589 104.901C417.694 104.706 417.796 104.208 417.364 103.776C416.824 103.235 416.959 102.74 417.274 102.605C417.589 102.47 418.04 102.56 418.49 103.911C418.94 105.081 419.607 108.053 418.85 110.575" stroke="#4D4D4D" stroke-width="0.450279" stroke-linecap="round"/>
<path d="M419.646 97.8553L420.353 96.5708" stroke="#4D4D4D" stroke-width="0.540335" stroke-linecap="round"/>
<path d="M413.537 98.4619L414.798 99.2724" stroke="#4D4D4D" stroke-width="0.540335" stroke-linecap="round"/>
<path d="M415.824 95.1978L417.058 98.0337" stroke="#4D4D4D" stroke-width="0.540335" stroke-linecap="round"/>
<path d="M420.191 101.751C420.191 100.805 420.411 99.2272 421.555 100.657C422.259 101.684 422.523 103.73 421.995 104.766" stroke="#4D4D4D" stroke-width="0.450279" stroke-linecap="round"/>
<path d="M417.859 102.622C417.713 102.101 417.639 101.13 418.519 101.416L419.487 103.381" stroke="#4D4D4D" stroke-width="0.450279" stroke-linecap="round"/>
<path d="M419.486 103.382L418.519 101.416C418.445 100.836 418.826 99.8976 419.75 100.657L420.19 101.751L420.63 102.846" stroke="#4D4D4D" stroke-width="0.450279" stroke-linecap="round"/>
<path d="M420.651 106.162C420.411 106.687 420.156 107.882 421.056 108.458" stroke="#4D4D4D" stroke-width="0.450279" stroke-linecap="round"/>
<path d="M421.777 105.396C421.987 104.796 422.624 103.604 423.488 103.64C424.353 103.676 423.669 104.811 423.488 105.216L422.228 107.692C421.957 108.368 421.552 109.584 422.498 110.979C423.443 112.24 426.704 115.482 430.216 116.023" stroke="#4D4D4D" stroke-width="0.450279" stroke-linecap="round"/>
<path d="M429.567 134.845C429.837 135.805 430.828 138.033 432.629 139.257L429.567 134.845ZM426.775 133.269L430.333 134.304L426.775 133.269ZM430.152 136.105C430.543 134.83 431.044 131.666 429.927 129.216C428.531 126.154 427.676 122.237 428.351 119.625C428.892 117.536 430.858 117.224 431.773 117.329C433.214 117.494 435.7 119.22 435.556 123.903C435.376 129.756 434.025 134.755 432.089 138.627L430.152 136.105Z" stroke="#4D4D4D" stroke-width="0.450279" stroke-linecap="round"/>
<path d="M428.712 138.222C428.712 135.925 428.697 134.304 428.441 133.674C431.9 134.971 436.096 134.634 437.762 134.304C437.807 134.409 438.176 135.412 439.293 138.582C440.689 142.544 439.698 155.783 439.293 157.268C438.888 158.754 437.807 158.799 436.231 158.619C434.97 158.475 433.304 155.017 432.629 153.306C429.477 147.407 428.712 140.916 428.712 138.222Z" fill="#4D4D4D"/>
<path d="M440.94 126.248C441.386 127.344 442.397 130.129 442.865 132.507C441.574 133.422 437.944 135.16 433.621 134.62L426.777 133.269C426.506 131.003 426.475 125.23 428.276 120.079C428.276 119.614 428.749 118.311 429.793 117.734" stroke="#4D4D4D" stroke-width="0.450279" stroke-linecap="round"/>
<path d="M440.554 130.162C440.535 129.873 441.069 127.769 440.939 126.247C440.866 125.399 440.774 124.34 440.658 123.05C440.333 119.448 439.052 116.686 438.451 115.756C437.851 114.825 436.43 114.267 435.305 114.672" stroke="#4D4D4D" stroke-width="0.450279" stroke-linecap="round"/>
<path d="M439.69 154.293C440.078 145.847 438.357 137.867 437.402 134.755C439.809 134.43 441.705 133.389 442.4 133.043C443.099 135.678 444.122 142.442 444.542 145.54C445.59 148.933 445.367 153.811 445.125 155.827C445.28 157.054 444.284 157.541 443.766 157.631C441.01 158.533 439.9 155.781 439.69 154.293Z" fill="#4D4D4D"/>
<path d="M417.77 102.469C418.535 103.7 419.67 106.684 418.805 110.934C418.88 111.85 420.216 114.878 421.237 116.248C422.813 118.364 426.1 120.751 428.126 121.426" stroke="#4D4D4D" stroke-width="0.450279" stroke-linecap="round"/>
<path d="M431.74 115.322C431.144 114.955 426.663 115.309 425.792 109.672C424.3 109.689 423.489 108.468 424.627 107.945C425.841 107.319 425.75 106.17 425.53 105.494C425.18 104.606 425.159 103.674 425.234 103.479" stroke="#4D4D4D" stroke-width="0.450279" stroke-linecap="round"/>
<path d="M427.029 107.646C426.816 107.649 426.64 107.392 426.637 107.072C426.633 106.752 426.803 106.491 427.016 106.489C427.229 106.486 427.405 106.743 427.408 107.063C427.412 107.383 427.242 107.644 427.029 107.646Z" fill="#4D4D4D"/>
<path d="M427.94 105.776C427.691 105.51 427.048 105.121 426.465 105.692" stroke="#4D4D4D" stroke-width="0.450279" stroke-linecap="round"/>
<path d="M429.63 110.956C429.173 111.659 428.671 111.859 427.695 111.405" stroke="#4D4D4D" stroke-width="0.450279" stroke-linecap="round"/>
<path d="M433.374 106.022C433.48 106.255 433.569 106.783 433.076 107.035" stroke="#4D4D4D" stroke-width="0.450279" stroke-linecap="round"/>
<path d="M438.624 103.633C439.204 106.808 437.389 109.198 436.072 111.036C434.667 110.276 432.362 108.47 433.246 108.275C434.175 108.07 435.155 105.536 434.253 104.761C433.194 103.852 432.24 105.228 432.059 106.271L431.206 104.797C431.447 103.766 431.542 101.958 429.992 102.971C428.442 103.985 426.168 103.72 425.225 103.46C423.365 102.129 420.476 99.0243 423.796 97.2538C426.557 95.7811 430.151 97.6429 432.344 99.3159C433.83 98.9238 437.833 99.3044 438.624 103.633Z" fill="#4D4D4D"/>
<path d="M435.969 110.823C435.297 111.631 434.964 112.302 435.005 113.692" stroke="#4D4D4D" stroke-width="0.450279" stroke-linecap="round"/>
<path d="M440.136 163.999C434.552 164.225 431.896 163.104 431.896 162.333C431.896 162.018 431.716 161.703 432.976 161.253C432.436 161.988 432.634 163.387 437.749 163.099C438.575 163.144 440.433 162.928 441.261 161.703H441.667C445.719 160.667 448.106 161.517 448.106 162.288C448.106 163.059 444.774 163.812 440.136 163.999Z" fill="#4D4D4D"/>
<path d="M441.184 161.683C444.199 161.971 444.58 159.552 444.393 158.306" stroke="#4D4D4D" stroke-width="0.450279" stroke-linecap="round"/>
<path d="M437.189 159.477C437.189 159.672 437.144 160.098 436.964 160.242C436.739 160.422 432.686 159.972 432.776 161.998C432.731 162.283 433.182 162.719 434.262 162.854C435.782 163.044 440.139 163.598 441.184 161.683C441.245 161.571 441.295 161.451 441.332 161.323L441.737 159.612" stroke="#4D4D4D" stroke-width="0.450279" stroke-linecap="round"/>
</g>
<path d="M368.856 55.4214C368.573 55.4214 368.341 55.3398 368.159 55.1765C367.983 55.0069 367.895 54.7997 367.895 54.5548C367.895 54.3036 367.983 54.0963 368.159 53.933C368.341 53.7635 368.573 53.6787 368.856 53.6787C369.132 53.6787 369.358 53.7635 369.534 53.933C369.716 54.0963 369.807 54.3036 369.807 54.5548C369.807 54.7997 369.716 55.0069 369.534 55.1765C369.358 55.3398 369.132 55.4214 368.856 55.4214ZM369.657 55.9678V61.2241H368.046V55.9678H369.657ZM370.457 57.9083C370.457 57.2552 370.598 56.6743 370.88 56.1656C371.163 55.6506 371.556 55.2518 372.058 54.9692C372.567 54.6804 373.141 54.5359 373.782 54.5359C374.567 54.5359 375.239 54.7432 375.798 55.1576C376.357 55.5721 376.73 56.1373 376.919 56.8532H375.148C375.016 56.5769 374.827 56.3665 374.582 56.2221C374.344 56.0777 374.071 56.0054 373.763 56.0054C373.267 56.0054 372.865 56.1781 372.557 56.5235C372.249 56.8689 372.096 57.3305 372.096 57.9083C372.096 58.486 372.249 58.9476 372.557 59.293C372.865 59.6384 373.267 59.8111 373.763 59.8111C374.071 59.8111 374.344 59.7389 374.582 59.5945C374.827 59.45 375.016 59.2396 375.148 58.9633H376.919C376.73 59.6792 376.357 60.2444 375.798 60.6589C375.239 61.0671 374.567 61.2712 373.782 61.2712C373.141 61.2712 372.567 61.1299 372.058 60.8473C371.556 60.5584 371.163 60.1597 370.88 59.651C370.598 59.1423 370.457 58.5614 370.457 57.9083ZM377.491 58.5865C377.491 58.0464 377.591 57.5723 377.792 57.1641C377.999 56.7559 378.279 56.4419 378.63 56.2221C378.982 56.0023 379.375 55.8924 379.808 55.8924C380.178 55.8924 380.502 55.9678 380.778 56.1185C381.061 56.2692 381.277 56.467 381.428 56.7119V55.9678H383.039V61.2241H381.428V60.4799C381.271 60.7249 381.051 60.9227 380.769 61.0734C380.492 61.2241 380.169 61.2995 379.799 61.2995C379.371 61.2995 378.982 61.1896 378.63 60.9698C378.279 60.7437 377.999 60.4266 377.792 60.0184C377.591 59.6039 377.491 59.1266 377.491 58.5865ZM381.428 58.5959C381.428 58.194 381.315 57.8769 381.089 57.6445C380.869 57.4122 380.599 57.296 380.279 57.296C379.959 57.296 379.685 57.4122 379.459 57.6445C379.24 57.8706 379.13 58.1846 379.13 58.5865C379.13 58.9884 379.24 59.3087 379.459 59.5474C379.685 59.7797 379.959 59.8959 380.279 59.8959C380.599 59.8959 380.869 59.7797 381.089 59.5474C381.315 59.315 381.428 58.9979 381.428 58.5959ZM385.721 56.8438C385.909 56.5549 386.145 56.3289 386.427 56.1656C386.71 55.996 387.024 55.9112 387.369 55.9112V57.6163H386.927C386.525 57.6163 386.223 57.7042 386.022 57.88C385.821 58.0496 385.721 58.351 385.721 58.7843V61.2241H384.11V55.9678H385.721V56.8438ZM393 58.5112C393 58.6619 392.991 58.8189 392.972 58.9822H389.326C389.351 59.3087 389.455 59.5599 389.637 59.7358C389.826 59.9053 390.055 59.9901 390.325 59.9901C390.727 59.9901 391.006 59.8205 391.163 59.4814H392.878C392.79 59.8268 392.63 60.1377 392.397 60.414C392.171 60.6903 391.885 60.907 391.54 61.064C391.195 61.221 390.808 61.2995 390.381 61.2995C389.866 61.2995 389.408 61.1896 389.006 60.9698C388.604 60.75 388.29 60.436 388.064 60.0278C387.838 59.6196 387.725 59.1423 387.725 58.5959C387.725 58.0496 387.835 57.5723 388.055 57.1641C388.281 56.7559 388.595 56.4419 388.997 56.2221C389.399 56.0023 389.86 55.8924 390.381 55.8924C390.89 55.8924 391.342 55.9992 391.738 56.2127C392.133 56.4262 392.441 56.7308 392.661 57.1264C392.887 57.5221 393 57.9836 393 58.5112ZM391.352 58.0873C391.352 57.8109 391.257 57.5911 391.069 57.4279C390.881 57.2646 390.645 57.1829 390.363 57.1829C390.092 57.1829 389.863 57.2614 389.675 57.4184C389.493 57.5754 389.38 57.7984 389.336 58.0873H391.352Z" fill="#4D4D4D"/>
</g>
<defs>
<clipPath id="clip0_1634_2349">
<rect width="555.152" height="259.053" fill="white" transform="translate(0.423828 0.100098)"/>
</clipPath>
<clipPath id="clip1_1634_2349">
<rect width="70.964" height="69.1629" fill="white" transform="translate(377.225 94.9277)"/>
</clipPath>
</defs>
</svg>
