<svg width="46" height="35" viewBox="0 0 46 35" fill="none" xmlns="http://www.w3.org/2000/svg">
<path d="M10.7349 13.3306C11.7955 14.337 13.5495 13.7671 13.816 12.3295C13.9704 11.4964 15.1642 11.4964 15.3186 12.3295C15.5851 13.7671 17.3391 14.337 18.3997 13.3306C19.0144 12.7474 19.9802 13.4491 19.6154 14.2139C18.986 15.5335 20.07 17.0256 21.5196 16.8348C22.3597 16.7242 22.7286 17.8596 21.9839 18.2639C20.6991 18.9616 20.6991 20.8058 21.9839 21.5035C22.7286 21.9079 22.3597 23.0432 21.5196 22.9326C20.07 22.7419 18.986 24.2339 19.6154 25.5535C19.9802 26.3184 19.0144 27.0201 18.3997 26.4368C17.3391 25.4304 15.5851 26.0003 15.3186 27.4379C15.1642 28.271 13.9704 28.271 13.816 27.4379C13.5495 26.0003 11.7955 25.4304 10.7349 26.4368C10.1203 27.0201 9.15446 26.3184 9.51922 25.5535C10.1486 24.2339 9.06458 22.7419 7.61503 22.9326C6.77493 23.0432 6.40603 21.9079 7.15067 21.5035C8.43553 20.8058 8.43553 18.9616 7.15067 18.2639C6.40603 17.8596 6.77493 16.7242 7.61503 16.8348C9.06458 17.0256 10.1486 15.5335 9.51922 14.2139C9.15446 13.4491 10.1203 12.7474 10.7349 13.3306Z" stroke="#3B1569" stroke-width="1.07906"/>
<circle cx="14.5678" cy="19.8832" r="2.69765" fill="#3B1569"/>
<path d="M26.421 23.1328L26.2338 11.6673C22.3502 8.49597 24.4641 5.67141 24.9921 4.43615C25.4145 3.44794 25.8737 4.02373 26.0505 4.43516C26.9389 11.3137 31.5218 7.78152 30.8138 4.96004C30.6369 4.43102 30.4949 3.5139 31.3421 4.07757C34.5916 8.16688 32.1129 10.8386 30.4673 11.6634L31.0072 23.1285C34.1147 26.2302 32.4547 29.0583 31.9907 30.4545C31.5686 31.7249 30.5806 31.5141 30.4852 30.714C29.7733 24.0117 26.5193 27.1081 26.251 30.0124C26.202 30.5426 26.2171 31.4589 25.3699 30.8952C22.5449 28.0755 24.8935 24.5454 26.421 23.1328Z" stroke="#3B1569" stroke-width="1.07906"/>
</svg>
