<svg width="222" height="177" viewBox="0 0 222 177" fill="none" xmlns="http://www.w3.org/2000/svg">
<path d="M177.415 105.587C180.982 101.998 189.915 93.2997 197.106 87.223C204.298 81.1464 213.614 76.0181 217.373 74.2135" stroke="#5E4EC2" stroke-width="5" stroke-linecap="round"/>
<path d="M159.887 92.809C159.97 86.917 161.409 74.1185 166.502 70.0603" stroke="#5E4EC2" stroke-width="5" stroke-linecap="round"/>
<path d="M115.448 67.7002C112.196 62.6334 106.885 50.0557 111.662 40.2791" stroke="#5E4EC2" stroke-width="5" stroke-linecap="round"/>
<path d="M18.5035 129.289C21.9452 104.826 66.1379 110.257 60.8431 122.685C58.5315 125.797 54.2744 126.734 53.1406 109.226C52.0067 91.7169 69.1345 73.0337 87.0157 75.9845C100.04 78.1337 120.701 79.7428 150.441 118.756C139.44 95.161 119.306 43.8099 126.782 27.1692" stroke="#5E4EC2" stroke-width="5" stroke-linecap="round"/>
</svg>
